<svg width="270" height="56" viewBox="0 0 270 56" fill="none" xmlns="http://www.w3.org/2000/svg">
<path d="M1.01653 17.9992L1.89476 15.1826C2.01527 14.7961 2.58875 14.5157 3.25711 14.5157C3.25988 14.5157 3.26127 14.5157 3.26404 14.5157C3.93587 14.5173 4.50726 14.8014 4.62224 15.1895L12.5228 41.8967L52.7874 41.8976C53.7522 41.8976 54.645 41.6635 55.3036 41.2388C56.0586 40.7508 56.479 40.0229 56.3779 39.3991C56.0828 37.8959 54.2308 36.8044 51.977 36.8044H18.3746C17.6993 36.8044 17.1217 36.5187 17.0095 36.1274L9.14287 8.83982C9.075 8.60371 9.1872 8.36232 9.45108 8.17945C9.71358 7.99658 10.1007 7.89133 10.508 7.89133H44.0841C51.7436 7.89133 59.221 11.5463 60.7537 16.036L67.9277 36.6463C68.5733 39.0594 67.5717 41.3278 65.1075 43.035C62.6875 44.7113 59.1393 45.6346 55.1159 45.6346L54.4746 45.6334C54.4621 45.6334 54.4503 45.6338 54.4365 45.6338C52.2936 45.635 11.3114 45.6367 10.8841 45.6367C9.33334 45.6367 8.01185 44.9848 7.73758 44.0692L1.0103 18.2674C0.98606 18.1788 0.98952 18.0874 1.01653 17.9992Z" fill="#CF274B"/>
<path d="M49.1502 18.093L38.098 18.4356L37.4175 17.3187L30.5981 17.5301L32.0828 19.967L48.6793 22.0388L54.6562 27.1297L49.1851 31.1272L36.2517 31.5281L24.7425 26.4019L32.9729 26.1467L36.7846 27.6838L42.6142 25.8478L29.0129 23.5797L18.6798 16.4513L35.2523 13.7649L49.1502 18.093Z" fill="#F9F9F9"/>
<path d="M81.4461 26.091C80.7788 26.091 80.1808 25.9827 79.6521 25.766C79.1235 25.5493 78.6988 25.2287 78.3781 24.804C78.0661 24.3793 77.9015 23.868 77.8841 23.27H80.2501C80.2848 23.608 80.4018 23.868 80.6011 24.05C80.8005 24.2233 81.0605 24.31 81.3811 24.31C81.7105 24.31 81.9705 24.2363 82.1611 24.089C82.3518 23.933 82.4471 23.7207 82.4471 23.452C82.4471 23.2267 82.3691 23.0403 82.2131 22.893C82.0658 22.7457 81.8795 22.6243 81.6541 22.529C81.4375 22.4337 81.1255 22.3253 80.7181 22.204C80.1288 22.022 79.6478 21.84 79.2751 21.658C78.9025 21.476 78.5818 21.2073 78.3131 20.852C78.0445 20.4967 77.9101 20.033 77.9101 19.461C77.9101 18.6117 78.2178 17.9487 78.8331 17.472C79.4485 16.9867 80.2501 16.744 81.2381 16.744C82.2435 16.744 83.0538 16.9867 83.6691 17.472C84.2845 17.9487 84.6138 18.616 84.6571 19.474H82.2521C82.2348 19.1793 82.1265 18.9497 81.9271 18.785C81.7278 18.6117 81.4721 18.525 81.1601 18.525C80.8915 18.525 80.6748 18.5987 80.5101 18.746C80.3455 18.8847 80.2631 19.0883 80.2631 19.357C80.2631 19.6517 80.4018 19.8813 80.6791 20.046C80.9565 20.2107 81.3898 20.3883 81.9791 20.579C82.5685 20.7783 83.0451 20.969 83.4091 21.151C83.7818 21.333 84.1025 21.5973 84.3711 21.944C84.6398 22.2907 84.7741 22.737 84.7741 23.283C84.7741 23.803 84.6398 24.2753 84.3711 24.7C84.1111 25.1247 83.7298 25.4627 83.2271 25.714C82.7245 25.9653 82.1308 26.091 81.4461 26.091ZM90.4452 24.115V26H89.3142C88.5082 26 87.8798 25.805 87.4292 25.415C86.9785 25.0163 86.7532 24.3707 86.7532 23.478V20.592H85.8692V18.746H86.7532V16.978H88.9762V18.746H90.4322V20.592H88.9762V23.504C88.9762 23.7207 89.0282 23.8767 89.1322 23.972C89.2362 24.0673 89.4095 24.115 89.6522 24.115H90.4452ZM99.1064 18.746V26H96.8834V25.012C96.6581 25.3327 96.3504 25.5927 95.9604 25.792C95.5791 25.9827 95.1544 26.078 94.6864 26.078C94.1318 26.078 93.6421 25.9567 93.2174 25.714C92.7928 25.4627 92.4634 25.103 92.2294 24.635C91.9954 24.167 91.8784 23.6167 91.8784 22.984V18.746H94.0884V22.685C94.0884 23.1703 94.2141 23.5473 94.4654 23.816C94.7168 24.0847 95.0548 24.219 95.4794 24.219C95.9128 24.219 96.2551 24.0847 96.5064 23.816C96.7578 23.5473 96.8834 23.1703 96.8834 22.685V18.746H99.1064ZM100.521 22.36C100.521 21.6147 100.66 20.9603 100.937 20.397C101.223 19.8337 101.609 19.4003 102.094 19.097C102.58 18.7937 103.121 18.642 103.719 18.642C104.196 18.642 104.629 18.7417 105.019 18.941C105.418 19.1403 105.73 19.409 105.955 19.747V16.38H108.178V26H105.955V24.96C105.747 25.3067 105.448 25.584 105.058 25.792C104.677 26 104.231 26.104 103.719 26.104C103.121 26.104 102.58 25.9523 102.094 25.649C101.609 25.337 101.223 24.8993 100.937 24.336C100.66 23.764 100.521 23.1053 100.521 22.36ZM105.955 22.373C105.955 21.8183 105.799 21.3807 105.487 21.06C105.184 20.7393 104.811 20.579 104.369 20.579C103.927 20.579 103.55 20.7393 103.238 21.06C102.935 21.372 102.783 21.8053 102.783 22.36C102.783 22.9147 102.935 23.3567 103.238 23.686C103.55 24.0067 103.927 24.167 104.369 24.167C104.811 24.167 105.184 24.0067 105.487 23.686C105.799 23.3653 105.955 22.9277 105.955 22.373ZM116.884 22.256C116.884 22.464 116.871 22.6807 116.845 22.906H111.814C111.849 23.3567 111.992 23.7033 112.243 23.946C112.503 24.18 112.82 24.297 113.192 24.297C113.747 24.297 114.133 24.063 114.349 23.595H116.715C116.594 24.0717 116.373 24.5007 116.052 24.882C115.74 25.2633 115.346 25.5623 114.869 25.779C114.393 25.9957 113.86 26.104 113.27 26.104C112.56 26.104 111.927 25.9523 111.372 25.649C110.818 25.3457 110.384 24.9123 110.072 24.349C109.76 23.7857 109.604 23.127 109.604 22.373C109.604 21.619 109.756 20.9603 110.059 20.397C110.371 19.8337 110.805 19.4003 111.359 19.097C111.914 18.7937 112.551 18.642 113.27 18.642C113.972 18.642 114.596 18.7893 115.142 19.084C115.688 19.3787 116.113 19.799 116.416 20.345C116.728 20.891 116.884 21.528 116.884 22.256ZM114.609 21.671C114.609 21.2897 114.479 20.9863 114.219 20.761C113.959 20.5357 113.634 20.423 113.244 20.423C112.872 20.423 112.555 20.5313 112.295 20.748C112.044 20.9647 111.888 21.2723 111.827 21.671H114.609ZM122.737 18.668C123.587 18.668 124.263 18.9453 124.765 19.5C125.277 20.046 125.532 20.8 125.532 21.762V26H123.322V22.061C123.322 21.5757 123.197 21.1987 122.945 20.93C122.694 20.6613 122.356 20.527 121.931 20.527C121.507 20.527 121.169 20.6613 120.917 20.93C120.666 21.1987 120.54 21.5757 120.54 22.061V26H118.317V18.746H120.54V19.708C120.766 19.3873 121.069 19.136 121.45 18.954C121.832 18.7633 122.261 18.668 122.737 18.668ZM131.38 24.115V26H130.249C129.443 26 128.815 25.805 128.364 25.415C127.913 25.0163 127.688 24.3707 127.688 23.478V20.592H126.804V18.746H127.688V16.978H129.911V18.746H131.367V20.592H129.911V23.504C129.911 23.7207 129.963 23.8767 130.067 23.972C130.171 24.0673 130.344 24.115 130.587 24.115H131.38ZM141.574 24.388H138.168L137.622 26H135.295L138.597 16.874H141.171L144.473 26H142.12L141.574 24.388ZM141.002 22.672L139.871 19.331L138.753 22.672H141.002ZM145.296 22.36C145.296 21.6147 145.435 20.9603 145.712 20.397C145.998 19.8337 146.384 19.4003 146.869 19.097C147.354 18.7937 147.896 18.642 148.494 18.642C148.971 18.642 149.404 18.7417 149.794 18.941C150.193 19.1403 150.505 19.409 150.73 19.747V16.38H152.953V26H150.73V24.96C150.522 25.3067 150.223 25.584 149.833 25.792C149.452 26 149.005 26.104 148.494 26.104C147.896 26.104 147.354 25.9523 146.869 25.649C146.384 25.337 145.998 24.8993 145.712 24.336C145.435 23.764 145.296 23.1053 145.296 22.36ZM150.73 22.373C150.73 21.8183 150.574 21.3807 150.262 21.06C149.959 20.7393 149.586 20.579 149.144 20.579C148.702 20.579 148.325 20.7393 148.013 21.06C147.71 21.372 147.558 21.8053 147.558 22.36C147.558 22.9147 147.71 23.3567 148.013 23.686C148.325 24.0067 148.702 24.167 149.144 24.167C149.586 24.167 149.959 24.0067 150.262 23.686C150.574 23.3653 150.73 22.9277 150.73 22.373ZM164.077 18.668C164.979 18.668 165.694 18.941 166.222 19.487C166.76 20.033 167.028 20.7913 167.028 21.762V26H164.818V22.061C164.818 21.593 164.693 21.2333 164.441 20.982C164.199 20.722 163.861 20.592 163.427 20.592C162.994 20.592 162.652 20.722 162.4 20.982C162.158 21.2333 162.036 21.593 162.036 22.061V26H159.826V22.061C159.826 21.593 159.701 21.2333 159.449 20.982C159.207 20.722 158.869 20.592 158.435 20.592C158.002 20.592 157.66 20.722 157.408 20.982C157.166 21.2333 157.044 21.593 157.044 22.061V26H154.821V18.746H157.044V19.656C157.27 19.3527 157.564 19.1143 157.928 18.941C158.292 18.759 158.704 18.668 159.163 18.668C159.709 18.668 160.195 18.785 160.619 19.019C161.053 19.253 161.391 19.5867 161.633 20.02C161.885 19.6213 162.227 19.2963 162.66 19.045C163.094 18.7937 163.566 18.668 164.077 18.668ZM169.961 17.992C169.571 17.992 169.25 17.8793 168.999 17.654C168.756 17.42 168.635 17.134 168.635 16.796C168.635 16.4493 168.756 16.1633 168.999 15.938C169.25 15.704 169.571 15.587 169.961 15.587C170.342 15.587 170.654 15.704 170.897 15.938C171.148 16.1633 171.274 16.4493 171.274 16.796C171.274 17.134 171.148 17.42 170.897 17.654C170.654 17.8793 170.342 17.992 169.961 17.992ZM171.066 18.746V26H168.843V18.746H171.066ZM175.888 26.104C175.255 26.104 174.692 25.9957 174.198 25.779C173.704 25.5623 173.314 25.2677 173.028 24.895C172.742 24.5137 172.582 24.089 172.547 23.621H174.744C174.77 23.8723 174.887 24.076 175.095 24.232C175.303 24.388 175.559 24.466 175.862 24.466C176.139 24.466 176.352 24.414 176.499 24.31C176.655 24.1973 176.733 24.0543 176.733 23.881C176.733 23.673 176.625 23.5213 176.408 23.426C176.191 23.322 175.84 23.2093 175.355 23.088C174.835 22.9667 174.402 22.841 174.055 22.711C173.708 22.5723 173.409 22.36 173.158 22.074C172.907 21.7793 172.781 21.385 172.781 20.891C172.781 20.475 172.894 20.098 173.119 19.76C173.353 19.4133 173.691 19.1403 174.133 18.941C174.584 18.7417 175.117 18.642 175.732 18.642C176.642 18.642 177.357 18.8673 177.877 19.318C178.406 19.7687 178.709 20.3667 178.787 21.112H176.733C176.698 20.8607 176.586 20.6613 176.395 20.514C176.213 20.3667 175.97 20.293 175.667 20.293C175.407 20.293 175.208 20.345 175.069 20.449C174.93 20.5443 174.861 20.6787 174.861 20.852C174.861 21.06 174.969 21.216 175.186 21.32C175.411 21.424 175.758 21.528 176.226 21.632C176.763 21.7707 177.201 21.9093 177.539 22.048C177.877 22.178 178.172 22.3947 178.423 22.698C178.683 22.9927 178.817 23.3913 178.826 23.894C178.826 24.3187 178.705 24.7 178.462 25.038C178.228 25.3673 177.886 25.6273 177.435 25.818C176.993 26.0087 176.477 26.104 175.888 26.104ZM183.397 26.104C182.764 26.104 182.201 25.9957 181.707 25.779C181.213 25.5623 180.823 25.2677 180.537 24.895C180.251 24.5137 180.091 24.089 180.056 23.621H182.253C182.279 23.8723 182.396 24.076 182.604 24.232C182.812 24.388 183.068 24.466 183.371 24.466C183.648 24.466 183.861 24.414 184.008 24.31C184.164 24.1973 184.242 24.0543 184.242 23.881C184.242 23.673 184.134 23.5213 183.917 23.426C183.7 23.322 183.349 23.2093 182.864 23.088C182.344 22.9667 181.911 22.841 181.564 22.711C181.217 22.5723 180.918 22.36 180.667 22.074C180.416 21.7793 180.29 21.385 180.29 20.891C180.29 20.475 180.403 20.098 180.628 19.76C180.862 19.4133 181.2 19.1403 181.642 18.941C182.093 18.7417 182.626 18.642 183.241 18.642C184.151 18.642 184.866 18.8673 185.386 19.318C185.915 19.7687 186.218 20.3667 186.296 21.112H184.242C184.207 20.8607 184.095 20.6613 183.904 20.514C183.722 20.3667 183.479 20.293 183.176 20.293C182.916 20.293 182.717 20.345 182.578 20.449C182.439 20.5443 182.37 20.6787 182.37 20.852C182.37 21.06 182.478 21.216 182.695 21.32C182.92 21.424 183.267 21.528 183.735 21.632C184.272 21.7707 184.71 21.9093 185.048 22.048C185.386 22.178 185.681 22.3947 185.932 22.698C186.192 22.9927 186.326 23.3913 186.335 23.894C186.335 24.3187 186.214 24.7 185.971 25.038C185.737 25.3673 185.395 25.6273 184.944 25.818C184.502 26.0087 183.986 26.104 183.397 26.104ZM189.073 17.992C188.683 17.992 188.362 17.8793 188.111 17.654C187.868 17.42 187.747 17.134 187.747 16.796C187.747 16.4493 187.868 16.1633 188.111 15.938C188.362 15.704 188.683 15.587 189.073 15.587C189.454 15.587 189.766 15.704 190.009 15.938C190.26 16.1633 190.386 16.4493 190.386 16.796C190.386 17.134 190.26 17.42 190.009 17.654C189.766 17.8793 189.454 17.992 189.073 17.992ZM190.178 18.746V26H187.955V18.746H190.178ZM195.351 26.104C194.64 26.104 193.999 25.9523 193.427 25.649C192.864 25.3457 192.417 24.9123 192.088 24.349C191.767 23.7857 191.607 23.127 191.607 22.373C191.607 21.6277 191.772 20.9733 192.101 20.41C192.43 19.838 192.881 19.4003 193.453 19.097C194.025 18.7937 194.666 18.642 195.377 18.642C196.088 18.642 196.729 18.7937 197.301 19.097C197.873 19.4003 198.324 19.838 198.653 20.41C198.982 20.9733 199.147 21.6277 199.147 22.373C199.147 23.1183 198.978 23.777 198.64 24.349C198.311 24.9123 197.856 25.3457 197.275 25.649C196.703 25.9523 196.062 26.104 195.351 26.104ZM195.351 24.18C195.776 24.18 196.135 24.024 196.43 23.712C196.733 23.4 196.885 22.9537 196.885 22.373C196.885 21.7923 196.738 21.346 196.443 21.034C196.157 20.722 195.802 20.566 195.377 20.566C194.944 20.566 194.584 20.722 194.298 21.034C194.012 21.3373 193.869 21.7837 193.869 22.373C193.869 22.9537 194.008 23.4 194.285 23.712C194.571 24.024 194.926 24.18 195.351 24.18ZM205.006 18.668C205.856 18.668 206.532 18.9453 207.034 19.5C207.546 20.046 207.801 20.8 207.801 21.762V26H205.591V22.061C205.591 21.5757 205.466 21.1987 205.214 20.93C204.963 20.6613 204.625 20.527 204.2 20.527C203.776 20.527 203.438 20.6613 203.186 20.93C202.935 21.1987 202.809 21.5757 202.809 22.061V26H200.586V18.746H202.809V19.708C203.035 19.3873 203.338 19.136 203.719 18.954C204.101 18.7633 204.53 18.668 205.006 18.668ZM215.923 26.091C215.256 26.091 214.658 25.9827 214.129 25.766C213.6 25.5493 213.176 25.2287 212.855 24.804C212.543 24.3793 212.378 23.868 212.361 23.27H214.727C214.762 23.608 214.879 23.868 215.078 24.05C215.277 24.2233 215.537 24.31 215.858 24.31C216.187 24.31 216.447 24.2363 216.638 24.089C216.829 23.933 216.924 23.7207 216.924 23.452C216.924 23.2267 216.846 23.0403 216.69 22.893C216.543 22.7457 216.356 22.6243 216.131 22.529C215.914 22.4337 215.602 22.3253 215.195 22.204C214.606 22.022 214.125 21.84 213.752 21.658C213.379 21.476 213.059 21.2073 212.79 20.852C212.521 20.4967 212.387 20.033 212.387 19.461C212.387 18.6117 212.695 17.9487 213.31 17.472C213.925 16.9867 214.727 16.744 215.715 16.744C216.72 16.744 217.531 16.9867 218.146 17.472C218.761 17.9487 219.091 18.616 219.134 19.474H216.729C216.712 19.1793 216.603 18.9497 216.404 18.785C216.205 18.6117 215.949 18.525 215.637 18.525C215.368 18.525 215.152 18.5987 214.987 18.746C214.822 18.8847 214.74 19.0883 214.74 19.357C214.74 19.6517 214.879 19.8813 215.156 20.046C215.433 20.2107 215.867 20.3883 216.456 20.579C217.045 20.7783 217.522 20.969 217.886 21.151C218.259 21.333 218.579 21.5973 218.848 21.944C219.117 22.2907 219.251 22.737 219.251 23.283C219.251 23.803 219.117 24.2753 218.848 24.7C218.588 25.1247 218.207 25.4627 217.704 25.714C217.201 25.9653 216.608 26.091 215.923 26.091ZM228.289 18.746L223.739 29.445H221.347L223.011 25.753L220.06 18.746H222.543L224.22 23.283L225.884 18.746H228.289ZM232.304 26.104C231.671 26.104 231.108 25.9957 230.614 25.779C230.12 25.5623 229.73 25.2677 229.444 24.895C229.158 24.5137 228.998 24.089 228.963 23.621H231.16C231.186 23.8723 231.303 24.076 231.511 24.232C231.719 24.388 231.975 24.466 232.278 24.466C232.555 24.466 232.768 24.414 232.915 24.31C233.071 24.1973 233.149 24.0543 233.149 23.881C233.149 23.673 233.041 23.5213 232.824 23.426C232.607 23.322 232.256 23.2093 231.771 23.088C231.251 22.9667 230.818 22.841 230.471 22.711C230.124 22.5723 229.825 22.36 229.574 22.074C229.323 21.7793 229.197 21.385 229.197 20.891C229.197 20.475 229.31 20.098 229.535 19.76C229.769 19.4133 230.107 19.1403 230.549 18.941C231 18.7417 231.533 18.642 232.148 18.642C233.058 18.642 233.773 18.8673 234.293 19.318C234.822 19.7687 235.125 20.3667 235.203 21.112H233.149C233.114 20.8607 233.002 20.6613 232.811 20.514C232.629 20.3667 232.386 20.293 232.083 20.293C231.823 20.293 231.624 20.345 231.485 20.449C231.346 20.5443 231.277 20.6787 231.277 20.852C231.277 21.06 231.385 21.216 231.602 21.32C231.827 21.424 232.174 21.528 232.642 21.632C233.179 21.7707 233.617 21.9093 233.955 22.048C234.293 22.178 234.588 22.3947 234.839 22.698C235.099 22.9927 235.233 23.3913 235.242 23.894C235.242 24.3187 235.121 24.7 234.878 25.038C234.644 25.3673 234.302 25.6273 233.851 25.818C233.409 26.0087 232.893 26.104 232.304 26.104ZM240.905 24.115V26H239.774C238.968 26 238.34 25.805 237.889 25.415C237.438 25.0163 237.213 24.3707 237.213 23.478V20.592H236.329V18.746H237.213V16.978H239.436V18.746H240.892V20.592H239.436V23.504C239.436 23.7207 239.488 23.8767 239.592 23.972C239.696 24.0673 239.869 24.115 240.112 24.115H240.905ZM249.241 22.256C249.241 22.464 249.228 22.6807 249.202 22.906H244.171C244.206 23.3567 244.349 23.7033 244.6 23.946C244.86 24.18 245.177 24.297 245.549 24.297C246.104 24.297 246.49 24.063 246.706 23.595H249.072C248.951 24.0717 248.73 24.5007 248.409 24.882C248.097 25.2633 247.703 25.5623 247.226 25.779C246.75 25.9957 246.217 26.104 245.627 26.104C244.917 26.104 244.284 25.9523 243.729 25.649C243.175 25.3457 242.741 24.9123 242.429 24.349C242.117 23.7857 241.961 23.127 241.961 22.373C241.961 21.619 242.113 20.9603 242.416 20.397C242.728 19.8337 243.162 19.4003 243.716 19.097C244.271 18.7937 244.908 18.642 245.627 18.642C246.329 18.642 246.953 18.7893 247.499 19.084C248.045 19.3787 248.47 19.799 248.773 20.345C249.085 20.891 249.241 21.528 249.241 22.256ZM246.966 21.671C246.966 21.2897 246.836 20.9863 246.576 20.761C246.316 20.5357 245.991 20.423 245.601 20.423C245.229 20.423 244.912 20.5313 244.652 20.748C244.401 20.9647 244.245 21.2723 244.184 21.671H246.966ZM259.93 18.668C260.831 18.668 261.546 18.941 262.075 19.487C262.612 20.033 262.881 20.7913 262.881 21.762V26H260.671V22.061C260.671 21.593 260.545 21.2333 260.294 20.982C260.051 20.722 259.713 20.592 259.28 20.592C258.847 20.592 258.504 20.722 258.253 20.982C258.01 21.2333 257.889 21.593 257.889 22.061V26H255.679V22.061C255.679 21.593 255.553 21.2333 255.302 20.982C255.059 20.722 254.721 20.592 254.288 20.592C253.855 20.592 253.512 20.722 253.261 20.982C253.018 21.2333 252.897 21.593 252.897 22.061V26H250.674V18.746H252.897V19.656C253.122 19.3527 253.417 19.1143 253.781 18.941C254.145 18.759 254.557 18.668 255.016 18.668C255.562 18.668 256.047 18.785 256.472 19.019C256.905 19.253 257.243 19.5867 257.486 20.02C257.737 19.6213 258.08 19.2963 258.513 19.045C258.946 18.7937 259.419 18.668 259.93 18.668ZM79.2621 31.992C78.8721 31.992 78.5515 31.8793 78.3001 31.654C78.0575 31.42 77.9361 31.134 77.9361 30.796C77.9361 30.4493 78.0575 30.1633 78.3001 29.938C78.5515 29.704 78.8721 29.587 79.2621 29.587C79.6435 29.587 79.9555 29.704 80.1981 29.938C80.4495 30.1633 80.5751 30.4493 80.5751 30.796C80.5751 31.134 80.4495 31.42 80.1981 31.654C79.9555 31.8793 79.6435 31.992 79.2621 31.992ZM80.3671 32.746V40H78.1441V32.746H80.3671ZM86.6581 32.668C87.5075 32.668 88.1835 32.9453 88.6861 33.5C89.1975 34.046 89.4531 34.8 89.4531 35.762V40H87.2431V36.061C87.2431 35.5757 87.1175 35.1987 86.8661 34.93C86.6148 34.6613 86.2768 34.527 85.8521 34.527C85.4275 34.527 85.0895 34.6613 84.8381 34.93C84.5868 35.1987 84.4611 35.5757 84.4611 36.061V40H82.2381V32.746H84.4611V33.708C84.6865 33.3873 84.9898 33.136 85.3711 32.954C85.7525 32.7633 86.1815 32.668 86.6581 32.668ZM100.838 30.874V32.655H98.4198V40H96.1968V32.655H93.7788V30.874H100.838ZM101.771 36.36C101.771 35.6147 101.91 34.9603 102.187 34.397C102.473 33.8337 102.859 33.4003 103.344 33.097C103.83 32.7937 104.371 32.642 104.969 32.642C105.481 32.642 105.927 32.746 106.308 32.954C106.698 33.162 106.997 33.435 107.205 33.773V32.746H109.428V40H107.205V38.973C106.989 39.311 106.685 39.584 106.295 39.792C105.914 40 105.468 40.104 104.956 40.104C104.367 40.104 103.83 39.9523 103.344 39.649C102.859 39.337 102.473 38.8993 102.187 38.336C101.91 37.764 101.771 37.1053 101.771 36.36ZM107.205 36.373C107.205 35.8183 107.049 35.3807 106.737 35.06C106.434 34.7393 106.061 34.579 105.619 34.579C105.177 34.579 104.8 34.7393 104.488 35.06C104.185 35.372 104.033 35.8053 104.033 36.36C104.033 36.9147 104.185 37.3567 104.488 37.686C104.8 38.0067 105.177 38.167 105.619 38.167C106.061 38.167 106.434 38.0067 106.737 37.686C107.049 37.3653 107.205 36.9277 107.205 36.373ZM112.415 31.992C112.025 31.992 111.704 31.8793 111.453 31.654C111.21 31.42 111.089 31.134 111.089 30.796C111.089 30.4493 111.21 30.1633 111.453 29.938C111.704 29.704 112.025 29.587 112.415 29.587C112.796 29.587 113.108 29.704 113.351 29.938C113.602 30.1633 113.728 30.4493 113.728 30.796C113.728 31.134 113.602 31.42 113.351 31.654C113.108 31.8793 112.796 31.992 112.415 31.992ZM113.52 32.746V40H111.297V32.746H113.52ZM125.804 32.746L123.841 40H121.384L120.24 35.294L119.057 40H116.613L114.637 32.746H116.86L117.887 37.933L119.109 32.746H121.462L122.697 37.907L123.711 32.746H125.804ZM126.469 36.36C126.469 35.6147 126.608 34.9603 126.885 34.397C127.171 33.8337 127.557 33.4003 128.042 33.097C128.528 32.7937 129.069 32.642 129.667 32.642C130.179 32.642 130.625 32.746 131.006 32.954C131.396 33.162 131.695 33.435 131.903 33.773V32.746H134.126V40H131.903V38.973C131.687 39.311 131.383 39.584 130.993 39.792C130.612 40 130.166 40.104 129.654 40.104C129.065 40.104 128.528 39.9523 128.042 39.649C127.557 39.337 127.171 38.8993 126.885 38.336C126.608 37.764 126.469 37.1053 126.469 36.36ZM131.903 36.373C131.903 35.8183 131.747 35.3807 131.435 35.06C131.132 34.7393 130.759 34.579 130.317 34.579C129.875 34.579 129.498 34.7393 129.186 35.06C128.883 35.372 128.731 35.8053 128.731 36.36C128.731 36.9147 128.883 37.3567 129.186 37.686C129.498 38.0067 129.875 38.167 130.317 38.167C130.759 38.167 131.132 38.0067 131.435 37.686C131.747 37.3653 131.903 36.9277 131.903 36.373ZM140.415 32.668C141.264 32.668 141.94 32.9453 142.443 33.5C142.954 34.046 143.21 34.8 143.21 35.762V40H141V36.061C141 35.5757 140.874 35.1987 140.623 34.93C140.371 34.6613 140.033 34.527 139.609 34.527C139.184 34.527 138.846 34.6613 138.595 34.93C138.343 35.1987 138.218 35.5757 138.218 36.061V40H135.995V32.746H138.218V33.708C138.443 33.3873 138.746 33.136 139.128 32.954C139.509 32.7633 139.938 32.668 140.415 32.668ZM150.213 30.874V36.334C150.213 36.88 150.348 37.3003 150.616 37.595C150.885 37.8897 151.279 38.037 151.799 38.037C152.319 38.037 152.718 37.8897 152.995 37.595C153.273 37.3003 153.411 36.88 153.411 36.334V30.874H155.634V36.321C155.634 37.1357 155.461 37.8247 155.114 38.388C154.768 38.9513 154.3 39.376 153.71 39.662C153.13 39.948 152.48 40.091 151.76 40.091C151.041 40.091 150.395 39.9523 149.823 39.675C149.26 39.389 148.814 38.9643 148.484 38.401C148.155 37.829 147.99 37.1357 147.99 36.321V30.874H150.213ZM161.875 32.668C162.725 32.668 163.401 32.9453 163.903 33.5C164.415 34.046 164.67 34.8 164.67 35.762V40H162.46V36.061C162.46 35.5757 162.335 35.1987 162.083 34.93C161.832 34.6613 161.494 34.527 161.069 34.527C160.645 34.527 160.307 34.6613 160.055 34.93C159.804 35.1987 159.678 35.5757 159.678 36.061V40H157.455V32.746H159.678V33.708C159.904 33.3873 160.207 33.136 160.588 32.954C160.97 32.7633 161.399 32.668 161.875 32.668ZM167.593 31.992C167.203 31.992 166.882 31.8793 166.631 31.654C166.388 31.42 166.267 31.134 166.267 30.796C166.267 30.4493 166.388 30.1633 166.631 29.938C166.882 29.704 167.203 29.587 167.593 29.587C167.974 29.587 168.286 29.704 168.529 29.938C168.78 30.1633 168.906 30.4493 168.906 30.796C168.906 31.134 168.78 31.42 168.529 31.654C168.286 31.8793 167.974 31.992 167.593 31.992ZM168.698 32.746V40H166.475V32.746H168.698ZM173.832 37.92L175.405 32.746H177.771L175.197 40H172.454L169.88 32.746H172.259L173.832 37.92ZM185.805 36.256C185.805 36.464 185.792 36.6807 185.766 36.906H180.735C180.769 37.3567 180.912 37.7033 181.164 37.946C181.424 38.18 181.74 38.297 182.113 38.297C182.667 38.297 183.053 38.063 183.27 37.595H185.636C185.514 38.0717 185.293 38.5007 184.973 38.882C184.661 39.2633 184.266 39.5623 183.79 39.779C183.313 39.9957 182.78 40.104 182.191 40.104C181.48 40.104 180.847 39.9523 180.293 39.649C179.738 39.3457 179.305 38.9123 178.993 38.349C178.681 37.7857 178.525 37.127 178.525 36.373C178.525 35.619 178.676 34.9603 178.98 34.397C179.292 33.8337 179.725 33.4003 180.28 33.097C180.834 32.7937 181.471 32.642 182.191 32.642C182.893 32.642 183.517 32.7893 184.063 33.084C184.609 33.3787 185.033 33.799 185.337 34.345C185.649 34.891 185.805 35.528 185.805 36.256ZM183.53 35.671C183.53 35.2897 183.4 34.9863 183.14 34.761C182.88 34.5357 182.555 34.423 182.165 34.423C181.792 34.423 181.476 34.5313 181.216 34.748C180.964 34.9647 180.808 35.2723 180.748 35.671H183.53ZM189.46 33.955C189.72 33.5563 190.045 33.2443 190.435 33.019C190.825 32.785 191.259 32.668 191.735 32.668V35.021H191.124C190.57 35.021 190.154 35.1423 189.876 35.385C189.599 35.619 189.46 36.035 189.46 36.633V40H187.237V32.746H189.46V33.955ZM196.009 40.104C195.376 40.104 194.813 39.9957 194.319 39.779C193.825 39.5623 193.435 39.2677 193.149 38.895C192.863 38.5137 192.703 38.089 192.668 37.621H194.865C194.891 37.8723 195.008 38.076 195.216 38.232C195.424 38.388 195.68 38.466 195.983 38.466C196.26 38.466 196.473 38.414 196.62 38.31C196.776 38.1973 196.854 38.0543 196.854 37.881C196.854 37.673 196.746 37.5213 196.529 37.426C196.312 37.322 195.961 37.2093 195.476 37.088C194.956 36.9667 194.523 36.841 194.176 36.711C193.829 36.5723 193.53 36.36 193.279 36.074C193.028 35.7793 192.902 35.385 192.902 34.891C192.902 34.475 193.015 34.098 193.24 33.76C193.474 33.4133 193.812 33.1403 194.254 32.941C194.705 32.7417 195.238 32.642 195.853 32.642C196.763 32.642 197.478 32.8673 197.998 33.318C198.527 33.7687 198.83 34.3667 198.908 35.112H196.854C196.819 34.8607 196.707 34.6613 196.516 34.514C196.334 34.3667 196.091 34.293 195.788 34.293C195.528 34.293 195.329 34.345 195.19 34.449C195.051 34.5443 194.982 34.6787 194.982 34.852C194.982 35.06 195.09 35.216 195.307 35.32C195.532 35.424 195.879 35.528 196.347 35.632C196.884 35.7707 197.322 35.9093 197.66 36.048C197.998 36.178 198.293 36.3947 198.544 36.698C198.804 36.9927 198.938 37.3913 198.947 37.894C198.947 38.3187 198.826 38.7 198.583 39.038C198.349 39.3673 198.007 39.6273 197.556 39.818C197.114 40.0087 196.598 40.104 196.009 40.104ZM201.685 31.992C201.295 31.992 200.974 31.8793 200.723 31.654C200.48 31.42 200.359 31.134 200.359 30.796C200.359 30.4493 200.48 30.1633 200.723 29.938C200.974 29.704 201.295 29.587 201.685 29.587C202.066 29.587 202.378 29.704 202.621 29.938C202.872 30.1633 202.998 30.4493 202.998 30.796C202.998 31.134 202.872 31.42 202.621 31.654C202.378 31.8793 202.066 31.992 201.685 31.992ZM202.79 32.746V40H200.567V32.746H202.79ZM208.704 38.115V40H207.573C206.767 40 206.139 39.805 205.688 39.415C205.237 39.0163 205.012 38.3707 205.012 37.478V34.592H204.128V32.746H205.012V30.978H207.235V32.746H208.691V34.592H207.235V37.504C207.235 37.7207 207.287 37.8767 207.391 37.972C207.495 38.0673 207.668 38.115 207.911 38.115H208.704ZM217.612 32.746L213.062 43.445H210.67L212.334 39.753L209.383 32.746H211.866L213.543 37.283L215.207 32.746H217.612Z" fill="#362928"/>
</svg>
